<svg xmlns="http://www.w3.org/2000/svg" viewBox="0 0 100 100">
  <rect width="100" height="100" fill="#ffffff"/>
  <g transform="translate(50,50) scale(1) translate(-50,-50)">
    <g transform="translate(66.8,57) scale(0.6) translate(-50,-50)"><path d="M 2,16 L 24,16 L 36,66 L 46,32 L 54,32 L 64,66 L 76,16 L 98,16 L 72,84 L 60,84 L 50,54 L 40,84 L 28,84 Z" fill="#12823f" stroke-linecap="butt" stroke-linejoin="miter" stroke-miterlimit="8"/></g>
    <g transform="translate(33.2,43) scale(0.6) translate(-50,-50)"><path d="M 2,16 L 24,16 L 36,66 L 46,32 L 54,32 L 64,66 L 76,16 L 98,16 L 72,84 L 60,84 L 50,54 L 40,84 L 28,84 Z" fill="#ffffff" stroke="#ffffff" stroke-width="5" stroke-linecap="butt" stroke-linejoin="miter" stroke-miterlimit="8"/><path d="M 2,16 L 24,16 L 36,66 L 46,32 L 54,32 L 64,66 L 76,16 L 98,16 L 72,84 L 60,84 L 50,54 L 40,84 L 28,84 Z" fill="#12823f" stroke-linecap="butt" stroke-linejoin="miter" stroke-miterlimit="8"/></g>
  </g>
</svg>
